# xmcd
#
# Track frame offsets:
#	150
#	11898
#	22733
#	33252
#	42076
#	52220
#	61355
#	73852
#	86379
#	97893
#	107112
#	116993
#	127664
#	138329
#	150070
#	162389
#	171981
#	182232
#	194706
#	204759
#
# Disc length: 2900 seconds
#
# Revision: 1
# Processed by: cddbd v1.5.2PL0 Copyright (c) Steve Scherf et al.
# Submitted via: audiograbber 1.83.01
#
DISCID=0b0b5214
DTITLE=Various Artist - All In My Mind - The Wand Records Story - 1961-1962  (
DTITLE=CD1)
DYEAR=2015
DGENRE=Oldies
TTITLE0=Maxine Brown - All In My Mind
TTITLE1=Russell Byrd - You'd Better Come Home
TTITLE2=Chuck Jackson - I Don't Want To Cry
TTITLE3=Shirelles - Tonight's The Night
TTITLE4=Tammy Montgomery - Voice Of Experience
TTITLE5=Videos - Trickle, Trickle
TTITLE6=Del Marino - Cupid's Arrow
TTITLE7=Bobby Peterson - Irresistible You
TTITLE8=Douglas 'Jocko' Henderson - A Little Bit Of Everything
TTITLE9=Titones - Symbol Of Love
TTITLE10=Eloise - You Should 'A Treated Me Right
TTITLE11=Lee Andrews and The Hearts - Teardrops
TTITLE12=Leeds - Heaven Only Knows
TTITLE13=Bette Watts - Let It Be
TTITLE14=Renaults - Just Like Mine
TTITLE15=Isley Brothers - The Snake
TTITLE16=Chuck Jackson - I Wake Up Crying
TTITLE17=Shep and The Limelites - Daddy's Home
TTITLE18=Soul Brothers - The Parade Of Broken Hearts
TTITLE19=Jokers - Whisper 
EXTD=
EXTT0=
EXTT1=
EXTT2=
EXTT3=
EXTT4=
EXTT5=
EXTT6=
EXTT7=
EXTT8=
EXTT9=
EXTT10=
EXTT11=
EXTT12=
EXTT13=
EXTT14=
EXTT15=
EXTT16=
EXTT17=
EXTT18=
EXTT19=
PLAYORDER=
